<svg width="356" height="55" viewBox="0 0 356 55" fill="none" xmlns="http://www.w3.org/2000/svg">
<path d="M193.104 50L200.609 2.5283H218.636C222.784 2.5283 226.013 3.21258 228.323 4.58113C230.675 5.94969 232.3 7.87421 233.198 10.3547C234.139 12.7925 234.609 15.7006 234.609 19.0792C234.609 20.4478 234.545 21.8591 234.417 23.3132C234.289 24.7673 234.096 26.2428 233.84 27.7396C233.241 31.5887 232.321 34.9245 231.081 37.7472C229.884 40.527 228.344 42.8365 226.462 44.6755C224.581 46.4717 222.357 47.8189 219.791 48.717C217.225 49.5723 214.274 50 210.938 50H193.104ZM203.945 41.4679H211.9C213.739 41.4679 215.343 41.1258 216.711 40.4415C218.123 39.7572 219.32 38.7736 220.304 37.4906C221.33 36.1648 222.164 34.561 222.806 32.6792C223.447 30.7975 223.96 28.6164 224.345 26.1358C224.559 24.6818 224.73 23.3774 224.859 22.2226C224.987 21.0679 225.051 20.1484 225.051 19.4642C225.051 17.4541 224.773 15.8503 224.217 14.6528C223.661 13.4126 222.742 12.5145 221.459 11.9585C220.176 11.3597 218.443 11.0604 216.262 11.0604H208.757L203.945 41.4679ZM251.017 50.3849C247.681 50.3849 245.008 49.8931 242.998 48.9094C241.03 47.883 239.598 46.4075 238.7 44.483C237.801 42.5585 237.352 40.2491 237.352 37.5547C237.352 36.3572 237.417 35.2239 237.545 34.1547C237.673 33.0428 237.823 31.9736 237.994 30.9472C238.593 27.1836 239.64 24.1472 241.137 21.8377C242.677 19.5283 244.687 17.839 247.168 16.7698C249.691 15.6579 252.642 15.1019 256.02 15.1019C257.688 15.1019 259.313 15.2516 260.896 15.5509C262.478 15.8503 263.868 16.3849 265.066 17.1547C266.306 17.8818 267.29 18.9296 268.017 20.2981C268.744 21.6239 269.107 23.3132 269.107 25.366C269.107 27.761 268.722 29.7283 267.952 31.2679C267.183 32.8075 266.092 34.005 264.681 34.8604C263.312 35.673 261.73 36.2503 259.934 36.5925C258.137 36.8918 256.234 37.0415 254.224 37.0415C252.642 37.0415 251.209 36.9774 249.926 36.8491C248.643 36.678 247.617 36.5069 246.847 36.3358C246.804 36.678 246.761 37.0629 246.718 37.4906C246.718 37.8755 246.718 38.2604 246.718 38.6453C246.718 40.2704 247.339 41.4679 248.579 42.2377C249.819 43.0075 251.872 43.3925 254.737 43.3925H265.835L264.937 48.9736C263.227 49.3157 261.152 49.6365 258.715 49.9358C256.277 50.2352 253.711 50.3849 251.017 50.3849ZM251.786 31.717C253.754 31.717 255.357 31.5459 256.598 31.2038C257.881 30.8189 258.8 30.2415 259.356 29.4717C259.955 28.6591 260.254 27.6327 260.254 26.3925C260.254 25.0239 259.848 24.0189 259.035 23.3774C258.223 22.6931 257.004 22.3509 255.379 22.3509C253.754 22.3509 252.407 22.6931 251.337 23.3774C250.311 24.0616 249.477 25.0667 248.835 26.3925C248.237 27.7182 247.788 29.3648 247.488 31.3321C248.087 31.4176 248.75 31.5031 249.477 31.5887C250.247 31.6742 251.017 31.717 251.786 31.717ZM278.479 50L272.384 15.5509H282.135L285.535 41.083L293.169 24.917C293.896 23.2918 294.474 21.7308 294.901 20.234C295.372 18.6943 295.714 16.9623 295.928 15.0377H304.652C304.61 17.4755 304.139 19.8704 303.241 22.2226C302.343 24.5748 301.359 26.8201 300.29 28.9585L289.449 50H278.479Z" fill="#5900FF"/>
<path d="M25.5947 40.4415L0.319221 31.717L1.66639 23.3132L29.6362 14.9094L28.3532 23.2491L10.2626 27.483L26.8777 32.1019L25.5947 40.4415ZM31.1357 54.6189L57.6942 0.603774H67.381L40.8225 54.6189H31.1357ZM91.823 50.3849C90.6255 50.3849 89.3853 50.2566 88.1023 50C86.8192 49.7434 85.6431 49.2302 84.574 48.4604C83.5048 47.6906 82.6922 46.6 82.1362 45.1887C81.5803 43.7774 81.4947 41.9384 81.8796 39.6717L86.0494 13.434C86.4771 10.6541 87.2897 8.47295 88.4872 6.89057C89.7274 5.30818 91.2243 4.19623 92.9777 3.55472C94.774 2.87044 96.6985 2.5283 98.7513 2.5283C101.959 2.5283 105.145 2.61384 108.31 2.7849C111.517 2.91321 114.789 3.10566 118.125 3.36226L116.842 11.317H100.098C98.6016 11.317 97.4683 11.6805 96.6985 12.4075C95.9287 13.1346 95.4155 14.2679 95.1589 15.8075L94.1966 21.966L111.966 22.5434L110.748 30.0491L92.8494 30.5623L91.823 37.1698C91.652 38.1962 91.6947 39.0302 91.9513 39.6717C92.2079 40.3132 92.6356 40.7836 93.2343 41.083C93.8759 41.3396 94.667 41.4679 95.6079 41.4679H112.095L110.876 49.4226C107.839 49.6792 104.76 49.8931 101.638 50.0642C98.5161 50.2352 95.2444 50.3421 91.823 50.3849ZM128.822 50.3849C125.7 50.3849 123.305 49.3371 121.637 47.2415C120.012 45.1459 119.199 42.2164 119.199 38.4528C119.199 36.0579 119.435 33.6201 119.905 31.1396C120.547 27.8465 121.445 25.0025 122.599 22.6075C123.797 20.2126 125.529 18.3736 127.796 17.0906C130.105 15.8075 133.248 15.166 137.226 15.166C138.381 15.166 139.493 15.2302 140.562 15.3585C141.674 15.4868 142.7 15.722 143.641 16.0641L146.015 1.05283H155.509L147.747 50H139.343L138.765 46.5358C137.953 47.2201 137.012 47.8616 135.943 48.4604C134.874 49.0164 133.74 49.4868 132.543 49.8717C131.345 50.2138 130.105 50.3849 128.822 50.3849ZM133.056 42.7509C134.425 42.7509 135.643 42.5157 136.713 42.0453C137.825 41.5321 138.851 40.9761 139.792 40.3774L142.422 23.8264C141.823 23.527 141.139 23.2918 140.369 23.1208C139.599 22.9069 138.68 22.8 137.611 22.8C136.157 22.8 134.874 23.078 133.762 23.634C132.65 24.1899 131.709 25.1736 130.939 26.5849C130.169 27.9962 129.549 30.0491 129.079 32.7434C128.95 33.4704 128.843 34.1761 128.758 34.8604C128.672 35.5447 128.63 36.2075 128.63 36.8491C128.63 38.3459 128.822 39.522 129.207 40.3774C129.635 41.2327 130.169 41.8528 130.811 42.2377C131.495 42.5799 132.243 42.7509 133.056 42.7509ZM164.695 50.3849C161.701 50.3849 159.52 49.6792 158.152 48.2679C156.826 46.8138 156.163 44.8252 156.163 42.3019C156.163 41.4038 156.184 40.634 156.227 39.9925C156.313 39.3509 156.398 38.7308 156.484 38.1321L160.076 15.5509H169.57L166.235 36.9774C166.192 37.1912 166.149 37.405 166.106 37.6189C166.106 37.8327 166.106 38.0893 166.106 38.3887C166.106 39.6289 166.47 40.527 167.197 41.083C167.967 41.5962 168.95 41.8528 170.148 41.8528C171.73 41.8528 173.12 41.5962 174.318 41.083C175.558 40.527 176.755 39.8428 177.91 39.0302L181.631 15.5509H191.125L185.736 50H177.269L176.755 46.4717C175.558 47.2843 174.36 47.9899 173.163 48.5887C172.008 49.1874 170.747 49.6365 169.378 49.9358C168.052 50.2352 166.491 50.3849 164.695 50.3849ZM325.881 40.4415L327.164 32.1019L345.319 27.4189L328.64 23.2491L329.923 14.9094L355.198 23.3132L353.915 31.717L325.881 40.4415Z" fill="white"/>
</svg>
