<svg width="140" height="29" viewBox="0 0 140 29" fill="none" xmlns="http://www.w3.org/2000/svg">
<g filter="url(#filter0_d_1_3)">
<path d="M14.0998 15.4719L4.27316 12.2516V9.14964L14.0998 6.04772V9.12596L7.6829 10.6651L14.0998 12.3936V15.4719ZM39.2491 19.1184C38.8702 19.1184 38.4361 19.0789 37.9467 19C37.4574 18.9369 36.9838 18.779 36.526 18.5264C36.084 18.2739 35.7131 17.895 35.4131 17.3898C35.129 16.8689 34.9869 16.1585 34.9869 15.2588V5.47943C34.9869 4.70593 35.1053 4.05871 35.3421 3.53778C35.5789 3.01684 35.8946 2.60641 36.2892 2.30648C36.6839 2.00655 37.118 1.79344 37.5916 1.66715C38.0651 1.54087 38.5308 1.47773 38.9886 1.47773C40.1725 1.47773 41.2144 1.49351 42.1142 1.52508C43.0298 1.55665 43.8506 1.59612 44.5768 1.64348C45.3029 1.67505 45.9659 1.72241 46.5658 1.78555V4.72171H40.0305C39.5411 4.72171 39.1623 4.84011 38.8939 5.0769C38.6255 5.31368 38.4914 5.67676 38.4914 6.16612V8.69974L45.4292 8.88917V11.6596L38.4914 11.849V14.2643C38.4914 14.6747 38.5545 14.9983 38.6808 15.2351C38.8229 15.4561 39.0044 15.6139 39.2254 15.7087C39.4622 15.7876 39.7069 15.827 39.9594 15.827H46.5658V18.7632C45.8712 18.8421 45.0977 18.9053 44.2453 18.9526C43.4086 19 42.5562 19.0395 41.688 19.071C40.8356 19.1026 40.0226 19.1184 39.2491 19.1184ZM53.1172 19.1421C52.1227 19.1421 51.2861 18.9369 50.6073 18.5264C49.9285 18.1002 49.4155 17.4214 49.0682 16.4901C48.7367 15.5429 48.5709 14.3037 48.5709 12.7725C48.5709 11.1939 48.713 9.91525 48.9971 8.93653C49.2971 7.95781 49.7943 7.23955 50.4889 6.78176C51.1835 6.32398 52.1385 6.09508 53.354 6.09508C53.9381 6.09508 54.5143 6.15822 55.0826 6.28451C55.6509 6.39501 56.156 6.52919 56.598 6.68705V0.933114H60.1261V19H57.1663L56.598 17.7924C56.3297 18.045 55.9982 18.2739 55.6035 18.4791C55.2246 18.6843 54.8221 18.85 54.3959 18.9763C53.9697 19.0868 53.5435 19.1421 53.1172 19.1421ZM54.3485 16.3243C54.8221 16.3243 55.2483 16.2454 55.6272 16.0875C56.0218 15.9297 56.3454 15.7718 56.598 15.6139V9.22068C56.2823 9.11018 55.9508 8.99967 55.6035 8.88917C55.2562 8.77867 54.8853 8.72342 54.4906 8.72342C53.9065 8.72342 53.433 8.82603 53.0699 9.03125C52.7226 9.23646 52.47 9.62321 52.3122 10.1915C52.1543 10.744 52.0754 11.5491 52.0754 12.6067C52.0754 13.5855 52.1464 14.3511 52.2885 14.9036C52.4463 15.4403 52.691 15.8113 53.0225 16.0165C53.354 16.2217 53.796 16.3243 54.3485 16.3243ZM66.3538 19.1421C65.2173 19.1421 64.3254 18.8106 63.6781 18.1476C63.0309 17.4688 62.7073 16.5137 62.7073 15.2824V6.28451H66.2118V14.2406C66.2118 14.9509 66.3775 15.4324 66.709 15.685C67.0563 15.9218 67.5062 16.0402 68.0587 16.0402C68.5007 16.0402 68.9506 15.9612 69.4084 15.8034C69.882 15.6297 70.3003 15.4008 70.6634 15.1167V6.28451H74.1915V19H71.279L70.6634 17.6977C70.0951 18.0765 69.44 18.4159 68.698 18.7159C67.9561 19 67.1747 19.1421 66.3538 19.1421ZM125.628 15.4719V12.3936L132.045 10.6888L125.628 9.12596V6.04772L135.455 9.14964V12.2516L125.628 15.4719Z" fill="#FDFDFD"/>
<path d="M16.7844 20.7049L23.4381 0.767362H27.0136L20.3599 20.7049H16.7844ZM77.0028 19V1.47773H84.4143C85.5982 1.47773 86.5848 1.69083 87.3741 2.11705C88.1634 2.52748 88.7869 3.12734 89.2447 3.91664C89.7183 4.69014 90.0498 5.61361 90.2392 6.68705C90.4287 7.76049 90.5234 8.94442 90.5234 10.2389C90.5234 12.2121 90.2945 13.8459 89.8367 15.1404C89.3947 16.4348 88.7238 17.4056 87.824 18.0528C86.9242 18.6843 85.7876 19 84.4143 19H77.0028ZM80.5073 15.8507H84.0591C84.7852 15.8507 85.3614 15.6455 85.7876 15.2351C86.2138 14.8089 86.5217 14.1774 86.7111 13.3408C86.9163 12.5041 87.0189 11.4702 87.0189 10.2389C87.0189 9.10228 86.9558 8.17092 86.8295 7.44477C86.7032 6.70284 86.5138 6.12665 86.2612 5.71622C86.0244 5.30579 85.7166 5.02164 85.3377 4.86379C84.9747 4.70593 84.5484 4.627 84.0591 4.627H80.5073V15.8507ZM98.0514 19.1184C96.6464 19.1184 95.5256 18.9369 94.689 18.5738C93.8523 18.1949 93.2446 17.5319 92.8657 16.5848C92.5026 15.6376 92.3211 14.3274 92.3211 12.6541C92.3211 10.9334 92.4948 9.59954 92.842 8.65239C93.1893 7.70524 93.7734 7.04223 94.5943 6.66337C95.4151 6.28451 96.528 6.09508 97.933 6.09508C99.1958 6.09508 100.206 6.22137 100.964 6.47394C101.722 6.72651 102.266 7.16852 102.598 7.79995C102.945 8.43138 103.119 9.32328 103.119 10.4756C103.119 11.3281 102.945 12.0069 102.598 12.512C102.266 13.0014 101.793 13.3566 101.177 13.5776C100.561 13.7828 99.8352 13.8854 98.9985 13.8854H95.8019C95.8335 14.5326 95.9282 15.0535 96.086 15.4482C96.2597 15.827 96.5675 16.1033 97.0095 16.2769C97.4673 16.4348 98.1224 16.5137 98.9748 16.5137H102.692V18.5738C102.077 18.7001 101.398 18.8264 100.656 18.9526C99.9299 19.0631 99.0617 19.1184 98.0514 19.1184ZM95.7545 11.8017H98.6433C99.1169 11.8017 99.4642 11.7069 99.6852 11.5175C99.9062 11.3281 100.017 10.9887 100.017 10.4993C100.017 10.0415 99.9457 9.67847 99.8036 9.41011C99.6615 9.12596 99.4405 8.92864 99.1406 8.81814C98.8407 8.69185 98.4381 8.62871 97.933 8.62871C97.3963 8.62871 96.97 8.72342 96.6543 8.91285C96.3386 9.0865 96.1097 9.40221 95.9676 9.86C95.8256 10.3178 95.7545 10.965 95.7545 11.8017ZM108.383 19L104.121 6.28451H107.744L110.491 15.756L113.309 6.28451H116.884L112.433 19H108.383Z" fill="#5EEAD4"/>
</g>
<defs>
<filter id="filter0_d_1_3" x="0.273163" y="0.767365" width="139.181" height="27.9375" filterUnits="userSpaceOnUse" color-interpolation-filters="sRGB">
<feFlood flood-opacity="0" result="BackgroundImageFix"/>
<feColorMatrix in="SourceAlpha" type="matrix" values="0 0 0 0 0 0 0 0 0 0 0 0 0 0 0 0 0 0 127 0" result="hardAlpha"/>
<feOffset dy="4"/>
<feGaussianBlur stdDeviation="2"/>
<feComposite in2="hardAlpha" operator="out"/>
<feColorMatrix type="matrix" values="0 0 0 0 0 0 0 0 0 0 0 0 0 0 0 0 0 0 0.25 0"/>
<feBlend mode="normal" in2="BackgroundImageFix" result="effect1_dropShadow_1_3"/>
<feBlend mode="normal" in="SourceGraphic" in2="effect1_dropShadow_1_3" result="shape"/>
</filter>
</defs>
</svg>
