<svg width="132" height="21" viewBox="0 0 132 21" fill="none" xmlns="http://www.w3.org/2000/svg">
<path d="M10.3059 15.4719L0.976466 12.2516L1.47372 9.14964L11.7977 6.04772L11.3241 9.12596L4.64667 10.6888L10.7795 12.3936L10.3059 15.4719ZM12.3511 20.7049L22.1541 0.767362H25.7296L15.9266 20.7049H12.3511ZM34.7514 19.1421C34.3094 19.1421 33.8516 19.0947 33.3781 19C32.9045 18.9053 32.4704 18.7159 32.0757 18.4317C31.6811 18.1476 31.3811 17.745 31.1759 17.2241C30.9707 16.7032 30.9391 16.0244 31.0812 15.1877L32.6203 5.50311C32.7782 4.47703 33.0781 3.67196 33.5201 3.08788C33.9779 2.5038 34.5304 2.09337 35.1776 1.85658C35.8406 1.60401 36.551 1.47773 37.3087 1.47773C38.4927 1.47773 39.6687 1.5093 40.8369 1.57244C42.0208 1.6198 43.2284 1.69083 44.4597 1.78555L43.9861 4.72171H37.806C37.2535 4.72171 36.8352 4.85589 36.551 5.12425C36.2669 5.39261 36.0774 5.81094 35.9827 6.37923L35.6275 8.65239L42.1866 8.86549L41.7367 11.6359L35.1303 11.8253L34.7514 14.2643C34.6883 14.6431 34.7041 14.9509 34.7988 15.1877C34.8935 15.4245 35.0514 15.5982 35.2724 15.7087C35.5091 15.8034 35.8012 15.8507 36.1485 15.8507H42.2339L41.784 18.7869C40.6632 18.8816 39.5266 18.9605 38.3743 19.0237C37.2219 19.0868 36.0143 19.1263 34.7514 19.1421ZM48.4081 19.1421C47.2558 19.1421 46.3718 18.7553 45.7561 17.9818C45.1563 17.2083 44.8563 16.127 44.8563 14.7378C44.8563 13.8538 44.9432 12.954 45.1168 12.0384C45.3536 10.8229 45.6851 9.77318 46.1113 8.88917C46.5533 8.00517 47.1926 7.32638 48.0293 6.8528C48.8817 6.37923 50.042 6.14244 51.5101 6.14244C51.9363 6.14244 52.3467 6.16612 52.7414 6.21347C53.1518 6.26083 53.5306 6.34765 53.8779 6.47394L54.754 0.933114H58.2585L55.3934 19H52.2915L52.0784 17.7213C51.7784 17.9739 51.4311 18.2107 51.0365 18.4317C50.6418 18.6369 50.2235 18.8106 49.7815 18.9526C49.3395 19.0789 48.8817 19.1421 48.4081 19.1421ZM49.9709 16.3243C50.4761 16.3243 50.926 16.2375 51.3206 16.0638C51.7311 15.8744 52.1099 15.6692 52.4572 15.4482L53.428 9.33907C53.207 9.22857 52.9545 9.14175 52.6703 9.0786C52.3862 8.99967 52.0468 8.96021 51.6521 8.96021C51.1154 8.96021 50.6418 9.06282 50.2314 9.26803C49.821 9.47325 49.4737 9.83632 49.1895 10.3573C48.9054 10.8782 48.6765 11.6359 48.5029 12.6304C48.4555 12.8988 48.416 13.1592 48.3845 13.4118C48.3529 13.6644 48.3371 13.9091 48.3371 14.1459C48.3371 14.6984 48.4081 15.1325 48.5502 15.4482C48.7081 15.7639 48.9054 15.9928 49.1422 16.1349C49.3948 16.2612 49.671 16.3243 49.9709 16.3243ZM61.6492 19.1421C60.5442 19.1421 59.7391 18.8816 59.234 18.3607C58.7446 17.824 58.4999 17.0899 58.4999 16.1585C58.4999 15.827 58.5078 15.5429 58.5236 15.3061C58.5552 15.0693 58.5867 14.8404 58.6183 14.6194L59.9443 6.28451H63.4488L62.2175 14.1932C62.2017 14.2721 62.1859 14.3511 62.1701 14.43C62.1701 14.5089 62.1701 14.6036 62.1701 14.7141C62.1701 15.1719 62.3043 15.5034 62.5727 15.7087C62.8568 15.8981 63.2199 15.9928 63.6619 15.9928C64.246 15.9928 64.759 15.8981 65.201 15.7087C65.6588 15.5034 66.1008 15.2509 66.527 14.9509L67.9004 6.28451H71.4048L69.4158 19H66.2902L66.1008 17.6977C65.6588 17.9976 65.2168 18.2581 64.7748 18.4791C64.3486 18.7001 63.8829 18.8658 63.3777 18.9763C62.8884 19.0868 62.3122 19.1421 61.6492 19.1421ZM121.145 15.4719L121.618 12.3936L128.319 10.6651L122.163 9.12596L122.636 6.04772L131.966 9.14964L131.492 12.2516L121.145 15.4719Z" fill="white"/>
<path d="M72.1352 19L74.9056 1.47773H81.5593C83.0905 1.47773 84.2824 1.7303 85.1348 2.23545C86.003 2.74059 86.6029 3.45095 86.9344 4.36653C87.2817 5.26632 87.4553 6.33976 87.4553 7.58684C87.4553 8.09199 87.4316 8.61292 87.3843 9.14964C87.3369 9.68636 87.2659 10.231 87.1712 10.7835C86.9502 12.2042 86.6108 13.4355 86.153 14.4774C85.711 15.5034 85.1427 16.3559 84.4481 17.0347C83.7535 17.6977 82.9327 18.1949 81.9855 18.5264C81.0384 18.8421 79.9492 19 78.7179 19H72.1352ZM76.1369 15.8507H79.073C79.7518 15.8507 80.3438 15.7244 80.849 15.4719C81.3699 15.2193 81.8119 14.8562 82.175 14.3826C82.5538 13.8933 82.8616 13.3013 83.0984 12.6067C83.3352 11.9122 83.5247 11.1071 83.6667 10.1915C83.7457 9.65479 83.8088 9.17332 83.8562 8.7471C83.9035 8.32088 83.9272 7.98149 83.9272 7.72892C83.9272 6.98698 83.8246 6.39501 83.6194 5.95301C83.4142 5.49522 83.0748 5.16372 82.6012 4.9585C82.1276 4.7375 81.4883 4.627 80.6832 4.627H77.9128L76.1369 15.8507ZM93.5114 19.1421C92.2801 19.1421 91.2934 18.9605 90.5515 18.5975C89.8254 18.2186 89.2965 17.674 88.965 16.9636C88.6335 16.2533 88.4678 15.4008 88.4678 14.4063C88.4678 13.9643 88.4915 13.546 88.5388 13.1513C88.5862 12.7409 88.6414 12.3463 88.7046 11.9674C88.9256 10.5783 89.3123 9.45746 89.8648 8.60503C90.4331 7.75259 91.175 7.12905 92.0906 6.73441C93.022 6.32398 94.1112 6.11876 95.3583 6.11876C95.9739 6.11876 96.5738 6.17401 97.1579 6.28451C97.742 6.39501 98.255 6.59233 98.697 6.87648C99.1548 7.14484 99.5179 7.53159 99.7862 8.03674C100.055 8.5261 100.189 9.14964 100.189 9.90736C100.189 10.7914 100.047 11.5175 99.7625 12.0858C99.4784 12.6541 99.0759 13.0961 98.5549 13.4118C98.0498 13.7117 97.4657 13.9249 96.8027 14.0511C96.1397 14.1616 95.4372 14.2169 94.6953 14.2169C94.1112 14.2169 93.5824 14.1932 93.1088 14.1459C92.6352 14.0827 92.2564 14.0196 91.9722 13.9564C91.9564 14.0827 91.9407 14.2248 91.9249 14.3826C91.9249 14.5247 91.9249 14.6668 91.9249 14.8089C91.9249 15.4087 92.1538 15.8507 92.6116 16.1349C93.0693 16.419 93.8271 16.5611 94.8847 16.5611H98.9811L98.6496 18.6211C98.0182 18.7474 97.2526 18.8658 96.3528 18.9763C95.453 19.0868 94.5059 19.1421 93.5114 19.1421ZM93.7955 12.2516C94.5216 12.2516 95.1136 12.1884 95.5714 12.0621C96.045 11.9201 96.3844 11.7069 96.5896 11.4228C96.8106 11.1229 96.9211 10.744 96.9211 10.2862C96.9211 9.78107 96.7711 9.41011 96.4712 9.17332C96.1713 8.92075 95.7214 8.79446 95.1215 8.79446C94.5216 8.79446 94.0244 8.92075 93.6297 9.17332C93.2509 9.42589 92.9431 9.79686 92.7063 10.2862C92.4853 10.7756 92.3195 11.3833 92.209 12.1095C92.43 12.1411 92.6747 12.1726 92.9431 12.2042C93.2272 12.2358 93.5114 12.2516 93.7955 12.2516ZM103.648 19L101.398 6.28451H104.998L106.253 15.7087L109.07 9.74161C109.339 9.14175 109.552 8.56556 109.71 8.01306C109.883 7.44477 110.01 6.80544 110.089 6.09508H113.309C113.293 6.99487 113.119 7.87888 112.788 8.7471C112.456 9.61532 112.093 10.4441 111.699 11.2334L107.697 19H103.648Z" fill="#05FF00"/>
</svg>
